# xmcd CD database file
#
# Track frame offsets:
#	150
#	21313
#	44601
#	63777
#	93476
#	114164
#	138992
#	160093
#	181312
#	203645
#	221373
#	241973
#
# Disc length: 3638 seconds
#
# Revision: 0
# Processed by: cddbd v1.5.1PL2 Copyright (c) Steve Scherf et al.
# Submitted via: CDex 1.51
#
DISCID=9c0e340c
DTITLE=Various Artist - Buddha Tea Lounge
DYEAR=2005
DGENRE=New Age
TTITLE0=Limbe
TTITLE1=Allahi Allah
TTITLE2=Voices from the Past
TTITLE3=Incantore
TTITLE4=Quanto Tengo Que Esperar
TTITLE5=Avenue L'Amour
TTITLE6=Forbidden Love
TTITLE7=Djambee
TTITLE8=Trail of Ancestors
TTITLE9=Aqua Acclivis
TTITLE10=Song of Laya
TTITLE11=Nara
EXTD=YEAR: 2005
EXTT0=
EXTT1=
EXTT2=
EXTT3=
EXTT4=
EXTT5=
EXTT6=
EXTT7=
EXTT8=
EXTT9=
EXTT10=
EXTT11=
PLAYORDER=
